<svg id="svg" version="1.1" xmlns="http://www.w3.org/2000/svg" xmlns:xlink="http://www.w3.org/1999/xlink" width="800" height="800" viewBox="0, 0, 400,400"><g id="svgg"><path id="path0" d="M32.499 190.899 L 32.600 341.400 46.575 341.505 C 56.046 341.577,60.686 341.474,60.975 341.185 C 61.273 340.887,61.460 299.711,61.600 203.680 L 61.800 66.600 196.800 66.506 C 300.308 66.434,332.011 66.301,332.706 65.935 L 333.611 65.459 333.506 53.029 L 333.400 40.600 182.899 40.499 L 32.399 40.399 32.499 190.899 M150.243 125.033 C 149.719 126.398,149.973 299.010,150.500 299.728 C 150.962 300.357,152.613 300.401,172.000 300.305 L 193.000 300.200 193.102 268.900 C 193.159 251.685,193.249 237.560,193.302 237.510 C 193.356 237.461,201.680 237.322,211.800 237.202 L 230.200 236.984 211.980 236.892 C 198.238 236.823,193.642 236.918,193.280 237.280 C 192.915 237.645,192.800 245.209,192.800 268.880 L 192.800 300.000 172.080 300.000 C 156.498 300.000,151.241 299.881,150.880 299.520 C 149.987 298.627,150.205 125.353,151.100 124.832 C 151.721 124.470,151.726 124.423,151.143 124.412 C 150.781 124.405,150.376 124.685,150.243 125.033 M192.800 159.138 L 193.000 193.800 211.600 193.800 L 230.200 193.800 230.302 159.422 C 230.382 132.553,230.513 124.967,230.902 124.692 C 231.269 124.432,231.242 124.382,230.800 124.503 C 230.274 124.647,230.187 128.894,230.098 159.133 L 229.996 193.600 211.598 193.600 L 193.200 193.600 193.200 159.224 C 193.200 140.317,193.065 124.764,192.900 124.662 C 192.735 124.560,192.690 140.074,192.800 159.138 M272.996 200.000 C 272.996 241.030,273.043 257.815,273.100 237.300 C 273.157 216.785,273.157 183.215,273.100 162.700 C 273.043 142.185,272.996 158.970,272.996 200.000 M230.196 269.000 L 230.200 300.200 238.909 300.308 C 243.698 300.367,248.446 300.277,249.458 300.108 C 250.470 299.939,246.597 299.863,240.852 299.939 L 230.405 300.079 230.299 268.939 L 230.193 237.800 230.196 269.000 M271.930 279.200 C 271.794 279.970,271.573 281.050,271.438 281.600 C 271.273 282.270,271.398 282.155,271.818 281.250 C 272.162 280.507,272.383 279.427,272.310 278.850 C 272.190 277.909,272.150 277.945,271.930 279.200 M268.492 287.829 C 267.997 288.583,267.672 289.200,267.769 289.200 C 268.047 289.200,269.704 286.771,269.539 286.606 C 269.457 286.524,268.986 287.074,268.492 287.829 M264.600 292.477 C 262.776 294.347,262.442 294.800,263.642 293.774 C 265.299 292.358,267.877 289.596,267.536 289.603 C 267.461 289.604,266.140 290.898,264.600 292.477 " stroke="none" fill="#D68857" fill-rule="evenodd"></path><path id="path1" d="M151.470 125.463 C 151.322 125.612,151.200 164.763,151.200 212.467 L 151.200 299.200 172.000 299.200 L 192.800 299.200 192.800 267.800 L 192.800 236.400 211.553 236.400 L 230.307 236.400 230.548 237.300 C 230.681 237.795,230.792 251.931,230.795 268.713 L 230.800 299.226 241.100 299.074 C 253.031 298.897,253.367 298.853,257.339 296.941 C 259.993 295.663,260.400 295.419,260.400 295.105 C 260.400 294.937,260.637 294.800,260.926 294.800 C 261.541 294.800,265.818 290.734,267.034 288.994 C 268.399 287.041,270.000 284.014,270.000 283.386 C 270.000 283.064,270.160 282.800,270.356 282.800 C 270.729 282.800,270.898 282.050,271.585 277.347 C 271.866 275.429,271.969 250.090,271.901 199.947 L 271.800 125.400 251.400 125.400 L 231.000 125.400 230.792 160.000 C 230.678 179.030,230.543 194.645,230.492 194.700 C 230.442 194.755,221.941 194.800,211.602 194.800 L 192.804 194.800 192.702 160.100 L 192.600 125.400 172.170 125.296 C 160.934 125.239,151.619 125.314,151.470 125.463 " stroke="none" fill="#fcfcfc" fill-rule="evenodd"></path><path id="path2" d="M161.700 124.700 C 167.365 124.762,176.635 124.762,182.300 124.700 C 187.965 124.637,183.330 124.586,172.000 124.586 C 160.670 124.586,156.035 124.637,161.700 124.700 M241.328 124.700 C 247.008 124.762,256.188 124.762,261.728 124.700 C 267.268 124.637,262.620 124.586,251.400 124.586 C 240.180 124.586,235.648 124.637,241.328 124.700 M150.667 125.067 C 150.144 125.590,150.356 298.996,150.880 299.520 C 151.244 299.884,156.413 299.977,172.180 299.905 L 193.000 299.811 172.000 299.605 L 151.000 299.400 151.000 212.100 C 151.000 164.085,150.985 124.800,150.967 124.800 C 150.948 124.800,150.813 124.920,150.667 125.067 M272.400 200.320 L 272.600 275.800 272.701 200.621 C 272.757 159.273,272.667 125.307,272.501 125.141 C 272.335 124.975,272.290 158.806,272.400 200.320 M193.062 194.100 C 193.164 194.265,201.506 194.400,211.600 194.400 C 221.694 194.400,230.036 194.265,230.138 194.100 C 230.240 193.935,221.898 193.800,211.600 193.800 C 201.302 193.800,192.960 193.935,193.062 194.100 M261.800 294.660 C 260.595 295.736,260.505 295.885,261.436 295.263 C 262.541 294.524,263.932 293.176,263.549 293.215 C 263.467 293.223,262.680 293.873,261.800 294.660 M234.900 299.899 C 237.485 299.968,241.715 299.968,244.300 299.899 C 246.885 299.829,244.770 299.772,239.600 299.772 C 234.430 299.772,232.315 299.829,234.900 299.899 " stroke="none" fill="#D68857" fill-rule="evenodd"></path><path id="path3" d="M150.985 125.300 C 150.880 125.575,150.841 164.860,150.897 212.600 L 151.000 299.400 171.900 299.405 L 192.800 299.411 171.999 299.302 L 151.198 299.193 151.299 212.296 L 151.400 125.400 172.100 125.400 C 183.485 125.400,192.800 125.265,192.800 125.100 C 192.800 124.539,151.199 124.738,150.985 125.300 M230.497 159.296 L 230.593 193.800 230.797 159.600 L 231.000 125.400 251.400 125.400 L 271.800 125.400 271.901 199.947 C 271.964 246.306,271.856 275.498,271.616 277.147 C 271.404 278.606,271.132 280.430,271.011 281.200 C 270.808 282.501,270.841 282.473,271.486 280.800 C 272.136 279.114,272.181 274.115,272.190 202.000 L 272.200 125.000 251.300 124.896 L 230.400 124.793 230.497 159.296 M192.800 194.500 C 192.800 194.665,201.260 194.800,211.600 194.800 C 221.940 194.800,230.400 194.665,230.400 194.500 C 230.400 194.335,221.940 194.200,211.600 194.200 C 201.260 194.200,192.800 194.335,192.800 194.500 M192.800 236.700 C 192.800 236.865,201.260 237.000,211.600 237.000 C 221.940 237.000,230.400 236.865,230.400 236.700 C 230.400 236.535,221.940 236.400,211.600 236.400 C 201.260 236.400,192.800 236.535,192.800 236.700 M230.497 268.500 L 230.400 299.600 240.700 299.507 L 251.000 299.414 240.902 299.300 L 230.805 299.186 230.700 268.293 L 230.595 237.400 230.497 268.500 M267.956 287.483 C 267.438 288.317,266.866 289.225,266.687 289.500 C 266.507 289.775,266.451 290.000,266.561 290.000 C 266.897 290.000,269.291 286.357,269.088 286.155 C 268.984 286.051,268.475 286.649,267.956 287.483 M264.200 292.093 C 263.320 292.980,262.960 293.517,263.400 293.287 C 264.367 292.782,266.704 290.384,266.175 290.440 C 265.969 290.462,265.080 291.205,264.200 292.093 M260.400 295.200 C 260.400 295.420,260.152 295.600,259.849 295.600 C 259.546 295.600,259.078 295.865,258.809 296.189 C 258.392 296.691,258.502 296.688,259.552 296.164 C 260.863 295.510,261.525 294.800,260.824 294.800 C 260.591 294.800,260.400 294.980,260.400 295.200 M251.600 298.800 C 250.836 299.294,251.658 299.294,253.200 298.800 L 254.200 298.480 253.200 298.446 C 252.650 298.427,251.930 298.587,251.600 298.800 " stroke="none" fill="#dcdcdc" fill-rule="evenodd"></path><path id="path4" d="M332.922 65.799 C 332.167 66.329,316.236 66.411,196.933 66.499 L 61.800 66.600 61.510 203.600 C 61.350 278.950,61.120 346.495,60.999 353.700 L 60.779 366.800 211.346 366.800 C 348.276 366.800,361.936 366.743,362.157 366.167 C 362.475 365.340,362.475 66.660,362.157 65.833 C 361.801 64.904,334.246 64.872,332.922 65.799 M193.102 159.100 L 193.204 193.600 211.600 193.600 L 229.996 193.600 230.098 159.100 L 230.200 124.600 251.452 124.497 L 272.705 124.393 272.947 125.297 C 273.080 125.793,273.188 159.320,273.187 199.800 C 273.184 283.753,273.387 278.291,269.987 285.815 C 268.346 289.447,262.901 295.155,259.600 296.702 C 258.830 297.063,258.110 297.477,258.000 297.623 C 257.890 297.768,257.080 298.116,256.200 298.395 C 255.320 298.674,254.226 299.041,253.770 299.211 C 251.472 300.064,246.382 300.438,238.600 300.323 L 230.200 300.200 230.098 268.700 L 229.995 237.200 212.098 237.206 C 202.254 237.209,193.976 237.354,193.702 237.528 C 193.314 237.775,193.182 244.689,193.102 269.022 L 193.000 300.200 172.000 300.305 C 152.613 300.401,150.962 300.357,150.500 299.728 C 149.972 299.009,149.719 126.397,150.244 125.029 C 150.464 124.457,152.621 124.403,171.744 124.497 L 193.000 124.600 193.102 159.100 " stroke="none" fill="#253B6D" fill-rule="evenodd"></path></g></svg>